<?xml version="1.0" encoding="utf-8"?><!-- Uploaded to: SVG Repo, www.svgrepo.com, Generator: SVG Repo Mixer Tools -->
<svg width="800px" height="800px" viewBox="0 0 24 24" fill="none" xmlns="http://www.w3.org/2000/svg">
<path d="M7 9H7.01M7 13H7.01M7 17H7.01M15 7H15.01M15 11H15.01M15 15H15.01M18 14H18.01M18 18H18.01M9 5H4C3.44772 5 3 5.44772 3 6V20C3 20.5523 3.44772 21 4 21H9M12 4.6V19.4C12 19.9601 12 20.2401 12.109 20.454C12.2049 20.6422 12.3578 20.7951 12.546 20.891C12.7599 21 13.0399 21 13.6 21H19.4C19.9601 21 20.2401 21 20.454 20.891C20.6422 20.7951 20.7951 20.6422 20.891 20.454C21 20.2401 21 19.9601 21 19.4V11.5C21 11.0341 21 10.8011 20.9239 10.6173C20.8224 10.3723 20.6277 10.1776 20.3827 10.0761C20.1989 10 19.9659 10 19.5 10C19.0341 10 18.8011 10 18.6173 9.92388C18.3723 9.82239 18.1776 9.62771 18.0761 9.38268C18 9.19891 18 8.96594 18 8.5V4.6C18 4.03995 18 3.75992 17.891 3.54601C17.7951 3.35785 17.6422 3.20487 17.454 3.10899C17.2401 3 16.9601 3 16.4 3H13.6C13.0399 3 12.7599 3 12.546 3.10899C12.3578 3.20487 12.2049 3.35785 12.109 3.54601C12 3.75992 12 4.03995 12 4.6Z" stroke="#000000" stroke-width="2" stroke-linecap="round" stroke-linejoin="round"/>
</svg>